<svg width="100%" height="100%" viewBox="0 0 50 50" fill="none" xmlns="http://www.w3.org/2000/svg">
<path d="M8.87503 21.1396C8.302 25.5262 7.96055 29.94 7.85212 34.3625C13.8496 36.8678 19.592 39.9445 25 43.55C30.4087 39.9444 36.1518 36.8677 42.15 34.3625C42.0415 29.94 41.7001 25.5262 41.1271 21.1396M41.1271 21.1396C42.95 20.5271 44.7979 19.9604 46.6646 19.4438C39.8658 14.6776 32.6083 10.6019 25 7.2771C17.3917 10.6026 10.1342 14.679 3.33545 19.4458C5.19645 19.9596 7.04298 20.5244 8.87295 21.1396C14.4326 23.0086 19.827 25.3375 25 28.1021C30.1724 25.3376 35.5681 23.0088 41.1271 21.1396ZM14.0625 31.25C14.4769 31.25 14.8744 31.0854 15.1674 30.7924C15.4604 30.4993 15.625 30.1019 15.625 29.6875C15.625 29.2731 15.4604 28.8757 15.1674 28.5827C14.8744 28.2896 14.4769 28.125 14.0625 28.125C13.6481 28.125 13.2507 28.2896 12.9577 28.5827C12.6647 28.8757 12.5 29.2731 12.5 29.6875C12.5 30.1019 12.6647 30.4993 12.9577 30.7924C13.2507 31.0854 13.6481 31.25 14.0625 31.25ZM14.0625 31.25V23.5938C17.5974 21.3966 21.2486 19.3922 25 17.5896M10.4021 41.6521C11.5646 40.4925 12.4864 39.1146 13.1145 37.5976C13.7427 36.0806 14.0649 34.4544 14.0625 32.8125V29.6875" stroke="currentColor" stroke-width="1.5" stroke-linecap="round" stroke-linejoin="round"/>
</svg>
