<svg width="100%" height="100%" viewBox="0 0 24 21" fill="none" xmlns="http://www.w3.org/2000/svg">
<path d="M19 19.25H5C3.89543 19.25 3 18.4665 3 17.5V5.25C3 4.2835 3.89543 3.5 5 3.5H7V1.75H9V3.5H15V1.75H17V3.5H19C20.1046 3.5 21 4.2835 21 5.25V17.5C21 18.4665 20.1046 19.25 19 19.25ZM5 8.75V17.5H19V8.75H5ZM5 5.25V7H19V5.25H5ZM17 15.75H15V14H17V15.75ZM13 15.75H11V14H13V15.75ZM9 15.75H7V14H9V15.75ZM17 12.25H15V10.5H17V12.25ZM13 12.25H11V10.5H13V12.25ZM9 12.25H7V10.5H9V12.25Z" fill="#EDF1F7"/>
</svg>
