<svg width="100%" height="100%" viewBox="0 0 20 20" fill="currentColor" xmlns="http://www.w3.org/2000/svg">
<path d="M3.57748 6.91084C3.73376 6.75461 3.94568 6.66685 4.16665 6.66685C4.38762 6.66685 4.59954 6.75461 4.75582 6.91084L9.99998 12.155L15.2442 6.91084C15.321 6.83125 15.413 6.76776 15.5146 6.72409C15.6163 6.68041 15.7257 6.65743 15.8363 6.65646C15.947 6.6555 16.0567 6.67659 16.1591 6.71849C16.2615 6.76039 16.3546 6.82227 16.4328 6.90051C16.5111 6.97875 16.5729 7.0718 16.6148 7.17421C16.6567 7.27663 16.6778 7.38636 16.6769 7.49701C16.6759 7.60766 16.6529 7.71701 16.6092 7.81868C16.5656 7.92035 16.5021 8.0123 16.4225 8.08917L10.5892 13.9225C10.4329 14.0787 10.221 14.1665 9.99998 14.1665C9.77901 14.1665 9.56709 14.0787 9.41082 13.9225L3.57748 8.08917C3.42126 7.9329 3.3335 7.72098 3.3335 7.50001C3.3335 7.27904 3.42126 7.06711 3.57748 6.91084Z" fill="currentColor"/>
</svg>
