<svg width="100%" height="100%" viewBox="0 0 377 136" fill="none" xmlns="http://www.w3.org/2000/svg">
<path d="M171.351 69.5C171.351 69.9 171.201 70.25 170.901 70.55C170.601 70.85 170.251 71 169.851 71C169.385 71 169.018 70.85 168.751 70.55C168.485 70.25 168.351 69.9 168.351 69.5V35.5C168.351 35.1 168.501 34.75 168.801 34.45C169.101 34.15 169.451 34 169.851 34C170.285 34 170.635 34.15 170.901 34.45C171.201 34.75 171.351 35.1 171.351 35.5V69.5ZM170.701 58.55H181.301C182.601 58.55 183.735 58.2333 184.701 57.6C185.668 56.9667 186.418 56.1 186.951 55C187.518 53.9 187.801 52.6833 187.801 51.35C187.801 49.95 187.518 48.7333 186.951 47.7C186.418 46.6667 185.668 45.85 184.701 45.25C183.735 44.65 182.601 44.35 181.301 44.35H170.751L169.451 41.35H181.301C183.168 41.35 184.818 41.7833 186.251 42.65C187.685 43.4833 188.801 44.65 189.601 46.15C190.435 47.65 190.851 49.3833 190.851 51.35C190.851 53.25 190.435 54.9833 189.601 56.55C188.801 58.0833 187.668 59.3 186.201 60.2C184.768 61.1 183.135 61.55 181.301 61.55H169.951L170.701 58.55ZM201.396 69.5C201.396 69.9 201.246 70.25 200.946 70.55C200.646 70.85 200.296 71 199.896 71C199.463 71 199.096 70.85 198.796 70.55C198.529 70.25 198.396 69.9 198.396 69.5V46.5C198.396 46.1 198.529 45.75 198.796 45.45C199.096 45.15 199.463 45 199.896 45C200.329 45 200.679 45.15 200.946 45.45C201.246 45.75 201.396 46.1 201.396 46.5V69.5ZM199.896 41.65C199.196 41.65 198.663 41.5 198.296 41.2C197.963 40.8667 197.796 40.4 197.796 39.8V39.3C197.796 38.7 197.979 38.25 198.346 37.95C198.746 37.6167 199.279 37.45 199.946 37.45C200.579 37.45 201.063 37.6167 201.396 37.95C201.763 38.25 201.946 38.7 201.946 39.3V39.8C201.946 40.4 201.763 40.8667 201.396 41.2C201.063 41.5 200.563 41.65 199.896 41.65ZM209.039 45.55H220.689C221.089 45.55 221.423 45.7 221.689 46C221.956 46.2667 222.089 46.6 222.089 47C222.089 47.3667 221.956 47.6833 221.689 47.95C221.423 48.2167 221.089 48.35 220.689 48.35H209.039C208.639 48.35 208.289 48.2167 207.989 47.95C207.723 47.65 207.589 47.3167 207.589 46.95C207.589 46.55 207.723 46.2167 207.989 45.95C208.289 45.6833 208.639 45.55 209.039 45.55ZM214.189 38.5C214.623 38.5 214.973 38.65 215.239 38.95C215.539 39.25 215.689 39.6 215.689 40V65.1C215.689 66.0333 215.806 66.7333 216.039 67.2C216.306 67.6667 216.639 67.9833 217.039 68.15C217.439 68.2833 217.839 68.35 218.239 68.35C218.506 68.35 218.739 68.3167 218.939 68.25C219.173 68.15 219.423 68.1 219.689 68.1C219.989 68.1 220.239 68.2167 220.439 68.45C220.673 68.6833 220.789 68.9833 220.789 69.35C220.789 69.8167 220.523 70.2167 219.989 70.55C219.456 70.85 218.823 71 218.089 71C217.789 71 217.339 70.9833 216.739 70.95C216.139 70.8833 215.523 70.7 214.889 70.4C214.256 70.0667 213.723 69.5 213.289 68.7C212.889 67.9 212.689 66.75 212.689 65.25V40C212.689 39.6 212.823 39.25 213.089 38.95C213.389 38.65 213.756 38.5 214.189 38.5ZM227.483 45.55H239.133C239.533 45.55 239.866 45.7 240.133 46C240.399 46.2667 240.533 46.6 240.533 47C240.533 47.3667 240.399 47.6833 240.133 47.95C239.866 48.2167 239.533 48.35 239.133 48.35H227.483C227.083 48.35 226.733 48.2167 226.433 47.95C226.166 47.65 226.033 47.3167 226.033 46.95C226.033 46.55 226.166 46.2167 226.433 45.95C226.733 45.6833 227.083 45.55 227.483 45.55ZM232.633 38.5C233.066 38.5 233.416 38.65 233.683 38.95C233.983 39.25 234.133 39.6 234.133 40V65.1C234.133 66.0333 234.249 66.7333 234.483 67.2C234.749 67.6667 235.083 67.9833 235.483 68.15C235.883 68.2833 236.283 68.35 236.683 68.35C236.949 68.35 237.183 68.3167 237.383 68.25C237.616 68.15 237.866 68.1 238.133 68.1C238.433 68.1 238.683 68.2167 238.883 68.45C239.116 68.6833 239.233 68.9833 239.233 69.35C239.233 69.8167 238.966 70.2167 238.433 70.55C237.899 70.85 237.266 71 236.533 71C236.233 71 235.783 70.9833 235.183 70.95C234.583 70.8833 233.966 70.7 233.333 70.4C232.699 70.0667 232.166 69.5 231.733 68.7C231.333 67.9 231.133 66.75 231.133 65.25V40C231.133 39.6 231.266 39.25 231.533 38.95C231.833 38.65 232.199 38.5 232.633 38.5ZM274.898 44.85C277.165 44.85 279.165 45.4167 280.898 46.55C282.665 47.6833 284.065 49.25 285.098 51.25C286.131 53.2167 286.648 55.5 286.648 58.1C286.648 60.6333 286.131 62.9167 285.098 64.95C284.065 66.9833 282.665 68.5833 280.898 69.75C279.131 70.9167 277.148 71.5 274.948 71.5C273.781 71.5 272.665 71.3167 271.598 70.95C270.565 70.5833 269.615 70.1 268.748 69.5C267.881 68.8667 267.115 68.1333 266.448 67.3C265.781 66.4667 265.248 65.5667 264.848 64.6L265.748 63.95V69.6C265.748 70.0333 265.598 70.4 265.298 70.7C265.031 70.9667 264.681 71.1 264.248 71.1C263.815 71.1 263.448 70.9667 263.148 70.7C262.881 70.4 262.748 70.0333 262.748 69.6V35.55C262.748 35.1167 262.881 34.7667 263.148 34.5C263.415 34.2 263.781 34.05 264.248 34.05C264.681 34.05 265.031 34.2 265.298 34.5C265.598 34.7667 265.748 35.1167 265.748 35.55V52.3L265.048 51.9C265.381 50.8667 265.865 49.9333 266.498 49.1C267.165 48.2333 267.931 47.4833 268.798 46.85C269.665 46.2167 270.615 45.7333 271.648 45.4C272.681 45.0333 273.765 44.85 274.898 44.85ZM274.648 47.65C272.848 47.65 271.265 48.1 269.898 49C268.531 49.9 267.448 51.1333 266.648 52.7C265.881 54.2667 265.498 56.0667 265.498 58.1C265.498 60.1 265.881 61.9167 266.648 63.55C267.448 65.15 268.531 66.4167 269.898 67.35C271.265 68.25 272.848 68.7 274.648 68.7C276.415 68.7 277.965 68.2333 279.298 67.3C280.665 66.3667 281.748 65.1 282.548 63.5C283.348 61.8667 283.748 60.0667 283.748 58.1C283.748 56.0667 283.348 54.2667 282.548 52.7C281.748 51.1333 280.665 49.9 279.298 49C277.965 48.1 276.415 47.65 274.648 47.65ZM296.07 71C295.603 71 295.237 70.85 294.97 70.55C294.703 70.25 294.57 69.9 294.57 69.5V47.1C294.57 46.7 294.703 46.35 294.97 46.05C295.27 45.75 295.637 45.6 296.07 45.6C296.503 45.6 296.853 45.75 297.12 46.05C297.42 46.35 297.57 46.7 297.57 47.1V54.6L296.82 54.75C296.92 53.5833 297.203 52.4333 297.67 51.3C298.17 50.1333 298.837 49.0667 299.67 48.1C300.503 47.1333 301.487 46.35 302.62 45.75C303.787 45.15 305.087 44.85 306.52 44.85C307.12 44.85 307.703 44.9833 308.27 45.25C308.837 45.4833 309.12 45.8833 309.12 46.45C309.12 46.95 308.987 47.3333 308.72 47.6C308.453 47.8667 308.137 48 307.77 48C307.47 48 307.137 47.9167 306.77 47.75C306.437 47.5833 305.987 47.5 305.42 47.5C304.487 47.5 303.553 47.7833 302.62 48.35C301.687 48.8833 300.837 49.6167 300.07 50.55C299.303 51.4833 298.687 52.5333 298.22 53.7C297.787 54.8333 297.57 55.9833 297.57 57.15V69.5C297.57 69.9 297.42 70.25 297.12 70.55C296.82 70.85 296.47 71 296.07 71ZM337.985 58.2C337.985 60.7333 337.435 63.0167 336.335 65.05C335.235 67.05 333.735 68.6333 331.835 69.8C329.935 70.9333 327.769 71.5 325.335 71.5C322.969 71.5 320.819 70.9333 318.885 69.8C316.985 68.6333 315.469 67.05 314.335 65.05C313.235 63.0167 312.685 60.7333 312.685 58.2C312.685 55.6333 313.235 53.35 314.335 51.35C315.469 49.35 316.985 47.7667 318.885 46.6C320.819 45.4333 322.969 44.85 325.335 44.85C327.769 44.85 329.935 45.4333 331.835 46.6C333.735 47.7667 335.235 49.35 336.335 51.35C337.435 53.35 337.985 55.6333 337.985 58.2ZM334.985 58.2C334.985 56.1667 334.569 54.3667 333.735 52.8C332.902 51.2 331.752 49.95 330.285 49.05C328.852 48.1167 327.202 47.65 325.335 47.65C323.535 47.65 321.902 48.1167 320.435 49.05C318.969 49.95 317.802 51.2 316.935 52.8C316.102 54.3667 315.685 56.1667 315.685 58.2C315.685 60.2333 316.102 62.0333 316.935 63.6C317.802 65.1667 318.969 66.4167 320.435 67.35C321.902 68.25 323.535 68.7 325.335 68.7C327.202 68.7 328.852 68.25 330.285 67.35C331.752 66.4167 332.902 65.1667 333.735 63.6C334.569 62.0333 334.985 60.2333 334.985 58.2ZM344.411 66.95C344.144 66.55 344.011 66.1667 344.011 65.8C344.044 65.4 344.261 65.0833 344.661 64.85C344.928 64.6167 345.228 64.5167 345.561 64.55C345.928 64.5833 346.261 64.75 346.561 65.05C347.461 66.2167 348.544 67.1667 349.811 67.9C351.111 68.6 352.644 68.95 354.411 68.95C355.344 68.95 356.261 68.8 357.161 68.5C358.094 68.1667 358.861 67.6833 359.461 67.05C360.061 66.3833 360.361 65.55 360.361 64.55C360.361 63.5167 360.061 62.6833 359.461 62.05C358.861 61.4167 358.078 60.9167 357.111 60.55C356.178 60.1833 355.178 59.8667 354.111 59.6C352.978 59.3 351.878 58.9667 350.811 58.6C349.744 58.2 348.794 57.7167 347.961 57.15C347.161 56.55 346.511 55.8333 346.011 55C345.511 54.1667 345.261 53.15 345.261 51.95C345.261 50.55 345.644 49.3167 346.411 48.25C347.178 47.1833 348.211 46.35 349.511 45.75C350.844 45.15 352.344 44.85 354.011 44.85C354.844 44.85 355.744 44.9667 356.711 45.2C357.678 45.4 358.628 45.75 359.561 46.25C360.494 46.75 361.328 47.4333 362.061 48.3C362.361 48.6 362.511 48.95 362.511 49.35C362.511 49.7167 362.344 50.05 362.011 50.35C361.744 50.55 361.428 50.65 361.061 50.65C360.728 50.65 360.444 50.5167 360.211 50.25C359.411 49.35 358.461 48.6667 357.361 48.2C356.261 47.7333 355.078 47.5 353.811 47.5C352.844 47.5 351.928 47.6667 351.061 48C350.228 48.3 349.528 48.7667 348.961 49.4C348.394 50.0333 348.111 50.8667 348.111 51.9C348.178 52.8667 348.511 53.65 349.111 54.25C349.744 54.85 350.561 55.35 351.561 55.75C352.594 56.15 353.744 56.5167 355.011 56.85C356.078 57.1167 357.094 57.4333 358.061 57.8C359.061 58.1667 359.928 58.6333 360.661 59.2C361.428 59.7333 362.028 60.4167 362.461 61.25C362.928 62.0833 363.161 63.1333 363.161 64.4C363.161 65.8667 362.744 67.1333 361.911 68.2C361.111 69.2667 360.028 70.0833 358.661 70.65C357.294 71.2167 355.778 71.5 354.111 71.5C352.311 71.5 350.561 71.15 348.861 70.45C347.194 69.75 345.711 68.5833 344.411 66.95Z" fill="#373737"/>
<path d="M172.068 104C171.844 104 171.66 103.928 171.516 103.784C171.388 103.64 171.324 103.472 171.324 103.28V87.992H172.812V103.28C172.812 103.472 172.74 103.64 172.596 103.784C172.452 103.928 172.276 104 172.068 104ZM166.356 88.568C166.164 88.568 165.996 88.504 165.852 88.376C165.708 88.248 165.636 88.08 165.636 87.872C165.636 87.68 165.708 87.52 165.852 87.392C165.996 87.264 166.164 87.2 166.356 87.2H177.78C177.972 87.2 178.14 87.264 178.284 87.392C178.428 87.52 178.5 87.688 178.5 87.896C178.5 88.104 178.428 88.272 178.284 88.4C178.14 88.512 177.972 88.568 177.78 88.568H166.356ZM190.39 91.736C190.598 91.736 190.766 91.808 190.894 91.952C191.038 92.096 191.109 92.272 191.109 92.48V103.28C191.109 103.472 191.038 103.64 190.894 103.784C190.75 103.928 190.582 104 190.39 104C190.182 104 190.006 103.928 189.862 103.784C189.734 103.64 189.67 103.472 189.67 103.28V100.424L190.078 100.232C190.078 100.68 189.95 101.136 189.694 101.6C189.454 102.064 189.118 102.496 188.686 102.896C188.254 103.296 187.742 103.624 187.15 103.88C186.574 104.12 185.95 104.24 185.278 104.24C184.19 104.24 183.214 103.96 182.35 103.4C181.502 102.84 180.83 102.072 180.334 101.096C179.854 100.12 179.614 99.024 179.614 97.808C179.614 96.56 179.862 95.464 180.358 94.52C180.854 93.56 181.526 92.808 182.374 92.264C183.222 91.72 184.182 91.448 185.254 91.448C185.942 91.448 186.582 91.568 187.174 91.808C187.782 92.048 188.31 92.376 188.758 92.792C189.206 93.208 189.55 93.688 189.79 94.232C190.046 94.76 190.174 95.312 190.174 95.888L189.67 95.528V92.48C189.67 92.272 189.734 92.096 189.862 91.952C190.006 91.808 190.182 91.736 190.39 91.736ZM185.398 102.896C186.246 102.896 186.998 102.68 187.654 102.248C188.31 101.8 188.822 101.192 189.19 100.424C189.574 99.64 189.766 98.768 189.766 97.808C189.766 96.864 189.574 96.016 189.19 95.264C188.822 94.512 188.31 93.912 187.654 93.464C186.998 93.016 186.246 92.792 185.398 92.792C184.566 92.792 183.814 93.008 183.142 93.44C182.486 93.872 181.966 94.464 181.582 95.216C181.214 95.968 181.03 96.832 181.03 97.808C181.03 98.768 181.214 99.64 181.582 100.424C181.966 101.192 182.486 101.8 183.142 102.248C183.798 102.68 184.55 102.896 185.398 102.896ZM202.172 91.448C203.228 91.448 204.068 91.664 204.692 92.096C205.332 92.512 205.788 93.088 206.06 93.824C206.348 94.544 206.492 95.344 206.492 96.224V103.28C206.492 103.472 206.42 103.64 206.276 103.784C206.132 103.928 205.964 104 205.772 104C205.548 104 205.372 103.928 205.244 103.784C205.116 103.64 205.052 103.472 205.052 103.28V96.296C205.052 95.656 204.948 95.072 204.74 94.544C204.532 94.016 204.188 93.592 203.708 93.272C203.244 92.952 202.628 92.792 201.86 92.792C201.172 92.792 200.516 92.952 199.892 93.272C199.284 93.592 198.788 94.016 198.404 94.544C198.02 95.072 197.828 95.656 197.828 96.296V103.28C197.828 103.472 197.756 103.64 197.612 103.784C197.468 103.928 197.3 104 197.108 104C196.884 104 196.708 103.928 196.58 103.784C196.452 103.64 196.388 103.472 196.388 103.28V92.528C196.388 92.336 196.452 92.168 196.58 92.024C196.724 91.88 196.9 91.808 197.108 91.808C197.316 91.808 197.484 91.88 197.612 92.024C197.756 92.168 197.828 92.336 197.828 92.528V94.544L197.276 95.408C197.308 94.896 197.468 94.408 197.756 93.944C198.06 93.464 198.444 93.04 198.908 92.672C199.372 92.288 199.884 91.992 200.444 91.784C201.02 91.56 201.596 91.448 202.172 91.448ZM217.547 91.448C218.603 91.448 219.443 91.664 220.067 92.096C220.707 92.512 221.163 93.088 221.435 93.824C221.723 94.544 221.867 95.344 221.867 96.224V103.28C221.867 103.472 221.795 103.64 221.651 103.784C221.507 103.928 221.339 104 221.147 104C220.923 104 220.747 103.928 220.619 103.784C220.491 103.64 220.427 103.472 220.427 103.28V96.296C220.427 95.656 220.323 95.072 220.115 94.544C219.907 94.016 219.563 93.592 219.083 93.272C218.619 92.952 218.003 92.792 217.235 92.792C216.547 92.792 215.891 92.952 215.267 93.272C214.659 93.592 214.163 94.016 213.779 94.544C213.395 95.072 213.203 95.656 213.203 96.296V103.28C213.203 103.472 213.131 103.64 212.987 103.784C212.843 103.928 212.675 104 212.483 104C212.259 104 212.083 103.928 211.955 103.784C211.827 103.64 211.763 103.472 211.763 103.28V92.528C211.763 92.336 211.827 92.168 211.955 92.024C212.099 91.88 212.275 91.808 212.483 91.808C212.691 91.808 212.859 91.88 212.987 92.024C213.131 92.168 213.203 92.336 213.203 92.528V94.544L212.651 95.408C212.683 94.896 212.843 94.408 213.131 93.944C213.435 93.464 213.819 93.04 214.283 92.672C214.747 92.288 215.259 91.992 215.819 91.784C216.395 91.56 216.971 91.448 217.547 91.448ZM228.722 103.28C228.722 103.472 228.65 103.64 228.506 103.784C228.362 103.928 228.194 104 228.002 104C227.794 104 227.618 103.928 227.474 103.784C227.346 103.64 227.282 103.472 227.282 103.28V86.96C227.282 86.768 227.354 86.6 227.498 86.456C227.642 86.312 227.81 86.24 228.002 86.24C228.21 86.24 228.378 86.312 228.506 86.456C228.65 86.6 228.722 86.768 228.722 86.96V103.28ZM238.777 91.448C239.305 91.448 239.817 91.504 240.313 91.616C240.809 91.728 241.257 91.912 241.657 92.168C242.057 92.408 242.369 92.736 242.593 93.152C242.833 93.568 242.953 94.08 242.953 94.688V97.856L241.633 97.928V95.24C241.633 94.552 241.481 94.04 241.177 93.704C240.873 93.352 240.497 93.112 240.049 92.984C239.617 92.856 239.185 92.792 238.753 92.792C238.209 92.792 237.689 92.896 237.193 93.104C236.697 93.312 236.249 93.576 235.849 93.896C235.449 94.2 235.129 94.528 234.889 94.88C234.729 95.072 234.537 95.168 234.313 95.168C234.153 95.168 234.009 95.112 233.881 95C233.769 94.872 233.713 94.72 233.713 94.544C233.713 94.48 233.721 94.408 233.737 94.328C233.769 94.248 233.809 94.168 233.857 94.088C234.193 93.656 234.609 93.24 235.105 92.84C235.601 92.44 236.161 92.112 236.785 91.856C237.425 91.584 238.089 91.448 238.777 91.448ZM237.313 104.24C236.705 104.24 236.105 104.112 235.513 103.856C234.937 103.584 234.449 103.184 234.049 102.656C233.665 102.112 233.473 101.432 233.473 100.616C233.473 99.736 233.737 99 234.265 98.408C234.809 97.8 235.569 97.344 236.545 97.04C237.537 96.72 238.697 96.56 240.025 96.56H251.545L251.257 96.848V96.368C251.193 95.616 250.953 94.976 250.537 94.448C250.121 93.92 249.617 93.52 249.025 93.248C248.433 92.976 247.817 92.84 247.177 92.84C246.697 92.84 246.209 92.936 245.713 93.128C245.217 93.32 244.761 93.624 244.345 94.04C243.929 94.44 243.593 94.96 243.337 95.6C243.081 96.224 242.953 96.968 242.953 97.832C242.953 98.776 243.145 99.632 243.529 100.4C243.913 101.168 244.465 101.776 245.185 102.224C245.921 102.672 246.793 102.896 247.801 102.896C248.361 102.896 248.865 102.816 249.313 102.656C249.761 102.496 250.153 102.288 250.489 102.032C250.841 101.76 251.129 101.48 251.353 101.192C251.513 101.048 251.681 100.976 251.857 100.976C252.033 100.976 252.177 101.04 252.289 101.168C252.401 101.296 252.457 101.44 252.457 101.6C252.457 101.792 252.377 101.96 252.217 102.104C251.753 102.68 251.129 103.184 250.345 103.616C249.577 104.032 248.745 104.24 247.849 104.24C246.601 104.24 245.505 103.976 244.561 103.448C243.617 102.92 242.881 102.184 242.353 101.24C241.825 100.296 241.561 99.192 241.561 97.928C241.561 96.568 241.833 95.408 242.377 94.448C242.921 93.488 243.617 92.752 244.465 92.24C245.313 91.712 246.217 91.448 247.177 91.448C247.881 91.448 248.561 91.576 249.217 91.832C249.889 92.072 250.481 92.44 250.993 92.936C251.521 93.416 251.937 94.008 252.241 94.712C252.561 95.416 252.737 96.232 252.769 97.16C252.769 97.352 252.697 97.52 252.553 97.664C252.409 97.792 252.241 97.856 252.049 97.856H239.977C238.953 97.856 238.057 97.96 237.289 98.168C236.537 98.376 235.953 98.688 235.537 99.104C235.121 99.52 234.913 100.024 234.913 100.616C234.913 101.128 235.041 101.552 235.297 101.888C235.553 102.224 235.873 102.48 236.257 102.656C236.657 102.816 237.041 102.896 237.409 102.896C238.113 102.896 238.769 102.744 239.377 102.44C240.001 102.12 240.537 101.744 240.985 101.312C241.449 100.864 241.769 100.456 241.945 100.088L242.665 101.144C242.393 101.56 242.009 102.008 241.513 102.488C241.033 102.968 240.441 103.384 239.737 103.736C239.049 104.072 238.241 104.24 237.313 104.24ZM258.213 104C258.005 104 257.829 103.928 257.685 103.784C257.557 103.64 257.493 103.472 257.493 103.28V86.96C257.493 86.768 257.557 86.6 257.685 86.456C257.829 86.312 258.005 86.24 258.213 86.24C258.421 86.24 258.589 86.312 258.717 86.456C258.861 86.6 258.933 86.768 258.933 86.96V103.28C258.933 103.472 258.861 103.64 258.717 103.784C258.589 103.928 258.421 104 258.213 104ZM266.373 91.688C266.549 91.688 266.709 91.768 266.853 91.928C266.997 92.072 267.069 92.232 267.069 92.408C267.069 92.616 266.981 92.8 266.805 92.96L258.741 99.824L258.669 98.12L265.869 91.928C266.013 91.768 266.181 91.688 266.373 91.688ZM266.565 104C266.357 104 266.181 103.912 266.037 103.736L260.565 97.928L261.645 96.944L267.069 102.728C267.213 102.888 267.285 103.072 267.285 103.28C267.285 103.504 267.197 103.68 267.021 103.808C266.845 103.936 266.693 104 266.565 104ZM277.477 91.448C278.533 91.448 279.373 91.664 279.997 92.096C280.637 92.512 281.093 93.088 281.365 93.824C281.653 94.544 281.797 95.344 281.797 96.224V103.28C281.797 103.472 281.725 103.64 281.581 103.784C281.437 103.928 281.269 104 281.077 104C280.853 104 280.677 103.928 280.549 103.784C280.421 103.64 280.357 103.472 280.357 103.28V96.296C280.357 95.656 280.253 95.072 280.045 94.544C279.837 94.016 279.493 93.592 279.013 93.272C278.549 92.952 277.933 92.792 277.165 92.792C276.477 92.792 275.821 92.952 275.197 93.272C274.589 93.592 274.093 94.016 273.709 94.544C273.325 95.072 273.133 95.656 273.133 96.296V103.28C273.133 103.472 273.061 103.64 272.917 103.784C272.773 103.928 272.605 104 272.413 104C272.189 104 272.013 103.928 271.885 103.784C271.757 103.64 271.693 103.472 271.693 103.28V92.528C271.693 92.336 271.757 92.168 271.885 92.024C272.029 91.88 272.205 91.808 272.413 91.808C272.621 91.808 272.789 91.88 272.917 92.024C273.061 92.168 273.133 92.336 273.133 92.528V94.544L272.581 95.408C272.613 94.896 272.773 94.408 273.061 93.944C273.365 93.464 273.749 93.04 274.213 92.672C274.677 92.288 275.189 91.992 275.749 91.784C276.325 91.56 276.901 91.448 277.477 91.448ZM297.124 91.736C297.332 91.736 297.5 91.808 297.628 91.952C297.772 92.096 297.844 92.272 297.844 92.48V103.28C297.844 103.472 297.772 103.64 297.628 103.784C297.484 103.928 297.316 104 297.124 104C296.916 104 296.74 103.928 296.596 103.784C296.468 103.64 296.404 103.472 296.404 103.28V100.424L296.812 100.232C296.812 100.68 296.684 101.136 296.428 101.6C296.188 102.064 295.852 102.496 295.42 102.896C294.988 103.296 294.476 103.624 293.884 103.88C293.308 104.12 292.684 104.24 292.012 104.24C290.924 104.24 289.948 103.96 289.084 103.4C288.236 102.84 287.564 102.072 287.068 101.096C286.588 100.12 286.348 99.024 286.348 97.808C286.348 96.56 286.596 95.464 287.092 94.52C287.588 93.56 288.26 92.808 289.108 92.264C289.956 91.72 290.916 91.448 291.988 91.448C292.676 91.448 293.316 91.568 293.908 91.808C294.516 92.048 295.044 92.376 295.492 92.792C295.94 93.208 296.284 93.688 296.524 94.232C296.78 94.76 296.908 95.312 296.908 95.888L296.404 95.528V92.48C296.404 92.272 296.468 92.096 296.596 91.952C296.74 91.808 296.916 91.736 297.124 91.736ZM292.132 102.896C292.98 102.896 293.732 102.68 294.388 102.248C295.044 101.8 295.556 101.192 295.924 100.424C296.308 99.64 296.5 98.768 296.5 97.808C296.5 96.864 296.308 96.016 295.924 95.264C295.556 94.512 295.044 93.912 294.388 93.464C293.732 93.016 292.98 92.792 292.132 92.792C291.3 92.792 290.548 93.008 289.876 93.44C289.22 93.872 288.7 94.464 288.316 95.216C287.948 95.968 287.764 96.832 287.764 97.808C287.764 98.768 287.948 99.64 288.316 100.424C288.7 101.192 289.22 101.8 289.876 102.248C290.532 102.68 291.284 102.896 292.132 102.896ZM302.427 102.056C302.299 101.864 302.235 101.68 302.235 101.504C302.251 101.312 302.355 101.16 302.547 101.048C302.675 100.936 302.819 100.888 302.979 100.904C303.155 100.92 303.315 101 303.459 101.144C303.891 101.704 304.411 102.16 305.019 102.512C305.643 102.848 306.379 103.016 307.227 103.016C307.675 103.016 308.115 102.944 308.547 102.8C308.995 102.64 309.363 102.408 309.651 102.104C309.939 101.784 310.083 101.384 310.083 100.904C310.083 100.408 309.939 100.008 309.651 99.704C309.363 99.4 308.987 99.16 308.523 98.984C308.075 98.808 307.595 98.656 307.083 98.528C306.539 98.384 306.011 98.224 305.499 98.048C304.987 97.856 304.531 97.624 304.131 97.352C303.747 97.064 303.435 96.72 303.195 96.32C302.955 95.92 302.835 95.432 302.835 94.856C302.835 94.184 303.019 93.592 303.387 93.08C303.755 92.568 304.251 92.168 304.875 91.88C305.515 91.592 306.235 91.448 307.035 91.448C307.435 91.448 307.867 91.504 308.331 91.616C308.795 91.712 309.251 91.88 309.699 92.12C310.147 92.36 310.547 92.688 310.899 93.104C311.043 93.248 311.115 93.416 311.115 93.608C311.115 93.784 311.035 93.944 310.875 94.088C310.747 94.184 310.595 94.232 310.419 94.232C310.259 94.232 310.123 94.168 310.011 94.04C309.627 93.608 309.171 93.28 308.643 93.056C308.115 92.832 307.547 92.72 306.939 92.72C306.475 92.72 306.035 92.8 305.619 92.96C305.219 93.104 304.883 93.328 304.611 93.632C304.339 93.936 304.203 94.336 304.203 94.832C304.235 95.296 304.395 95.672 304.683 95.96C304.987 96.248 305.379 96.488 305.859 96.68C306.355 96.872 306.907 97.048 307.515 97.208C308.027 97.336 308.515 97.488 308.979 97.664C309.459 97.84 309.875 98.064 310.227 98.336C310.595 98.592 310.883 98.92 311.091 99.32C311.315 99.72 311.427 100.224 311.427 100.832C311.427 101.536 311.227 102.144 310.827 102.656C310.443 103.168 309.923 103.56 309.267 103.832C308.611 104.104 307.883 104.24 307.083 104.24C306.219 104.24 305.379 104.072 304.563 103.736C303.763 103.4 303.051 102.84 302.427 102.056ZM315.081 91.784H320.673C320.865 91.784 321.025 91.856 321.153 92C321.281 92.128 321.345 92.288 321.345 92.48C321.345 92.656 321.281 92.808 321.153 92.936C321.025 93.064 320.865 93.128 320.673 93.128H315.081C314.889 93.128 314.721 93.064 314.577 92.936C314.449 92.792 314.385 92.632 314.385 92.456C314.385 92.264 314.449 92.104 314.577 91.976C314.721 91.848 314.889 91.784 315.081 91.784ZM317.553 88.4C317.761 88.4 317.929 88.472 318.057 88.616C318.201 88.76 318.273 88.928 318.273 89.12V101.168C318.273 101.616 318.329 101.952 318.441 102.176C318.569 102.4 318.729 102.552 318.921 102.632C319.113 102.696 319.305 102.728 319.497 102.728C319.625 102.728 319.737 102.712 319.833 102.68C319.945 102.632 320.065 102.608 320.193 102.608C320.337 102.608 320.457 102.664 320.553 102.776C320.665 102.888 320.721 103.032 320.721 103.208C320.721 103.432 320.593 103.624 320.337 103.784C320.081 103.928 319.777 104 319.425 104C319.281 104 319.065 103.992 318.777 103.976C318.489 103.944 318.193 103.856 317.889 103.712C317.585 103.552 317.329 103.28 317.121 102.896C316.929 102.512 316.833 101.96 316.833 101.24V89.12C316.833 88.928 316.897 88.76 317.025 88.616C317.169 88.472 317.345 88.4 317.553 88.4ZM336.812 97.856C336.812 99.072 336.548 100.168 336.02 101.144C335.492 102.104 334.772 102.864 333.86 103.424C332.948 103.968 331.908 104.24 330.74 104.24C329.604 104.24 328.572 103.968 327.644 103.424C326.732 102.864 326.004 102.104 325.46 101.144C324.932 100.168 324.668 99.072 324.668 97.856C324.668 96.624 324.932 95.528 325.46 94.568C326.004 93.608 326.732 92.848 327.644 92.288C328.572 91.728 329.604 91.448 330.74 91.448C331.908 91.448 332.948 91.728 333.86 92.288C334.772 92.848 335.492 93.608 336.02 94.568C336.548 95.528 336.812 96.624 336.812 97.856ZM335.372 97.856C335.372 96.88 335.172 96.016 334.772 95.264C334.372 94.496 333.82 93.896 333.116 93.464C332.428 93.016 331.636 92.792 330.74 92.792C329.876 92.792 329.092 93.016 328.388 93.464C327.684 93.896 327.124 94.496 326.708 95.264C326.308 96.016 326.108 96.88 326.108 97.856C326.108 98.832 326.308 99.696 326.708 100.448C327.124 101.2 327.684 101.8 328.388 102.248C329.092 102.68 329.876 102.896 330.74 102.896C331.636 102.896 332.428 102.68 333.116 102.248C333.82 101.8 334.372 101.2 334.772 100.448C335.172 99.696 335.372 98.832 335.372 97.856ZM345.813 86.336C346.053 86.336 346.309 86.36 346.581 86.408C346.869 86.456 347.117 86.544 347.325 86.672C347.533 86.784 347.637 86.96 347.637 87.2C347.637 87.376 347.573 87.536 347.445 87.68C347.317 87.808 347.173 87.872 347.013 87.872C346.853 87.872 346.653 87.832 346.413 87.752C346.173 87.656 345.917 87.608 345.645 87.608C345.309 87.608 345.021 87.688 344.781 87.848C344.541 87.992 344.357 88.208 344.229 88.496C344.101 88.768 344.037 89.104 344.037 89.504V103.28C344.037 103.472 343.965 103.64 343.821 103.784C343.693 103.928 343.525 104 343.317 104C343.109 104 342.933 103.928 342.789 103.784C342.661 103.64 342.597 103.472 342.597 103.28V89.504C342.597 88.48 342.893 87.696 343.485 87.152C344.093 86.608 344.869 86.336 345.813 86.336ZM346.725 91.976C346.917 91.976 347.077 92.04 347.205 92.168C347.333 92.296 347.397 92.456 347.397 92.648C347.397 92.84 347.333 93 347.205 93.128C347.077 93.256 346.917 93.32 346.725 93.32H340.845C340.669 93.32 340.509 93.256 340.365 93.128C340.237 92.984 340.173 92.824 340.173 92.648C340.173 92.44 340.237 92.28 340.365 92.168C340.509 92.04 340.669 91.976 340.845 91.976H346.725ZM361.577 91.736C361.785 91.736 361.953 91.808 362.081 91.952C362.225 92.096 362.297 92.272 362.297 92.48V103.28C362.297 103.472 362.225 103.64 362.081 103.784C361.937 103.928 361.769 104 361.577 104C361.369 104 361.193 103.928 361.049 103.784C360.921 103.64 360.857 103.472 360.857 103.28V100.424L361.265 100.232C361.265 100.68 361.137 101.136 360.881 101.6C360.641 102.064 360.305 102.496 359.873 102.896C359.441 103.296 358.929 103.624 358.337 103.88C357.761 104.12 357.137 104.24 356.465 104.24C355.377 104.24 354.401 103.96 353.537 103.4C352.689 102.84 352.017 102.072 351.521 101.096C351.041 100.12 350.801 99.024 350.801 97.808C350.801 96.56 351.049 95.464 351.545 94.52C352.041 93.56 352.713 92.808 353.561 92.264C354.409 91.72 355.369 91.448 356.441 91.448C357.129 91.448 357.769 91.568 358.361 91.808C358.969 92.048 359.497 92.376 359.945 92.792C360.393 93.208 360.737 93.688 360.977 94.232C361.233 94.76 361.361 95.312 361.361 95.888L360.857 95.528V92.48C360.857 92.272 360.921 92.096 361.049 91.952C361.193 91.808 361.369 91.736 361.577 91.736ZM356.585 102.896C357.433 102.896 358.185 102.68 358.841 102.248C359.497 101.8 360.009 101.192 360.377 100.424C360.761 99.64 360.953 98.768 360.953 97.808C360.953 96.864 360.761 96.016 360.377 95.264C360.009 94.512 359.497 93.912 358.841 93.464C358.185 93.016 357.433 92.792 356.585 92.792C355.753 92.792 355.001 93.008 354.329 93.44C353.673 93.872 353.153 94.464 352.769 95.216C352.401 95.968 352.217 96.832 352.217 97.808C352.217 98.768 352.401 99.64 352.769 100.424C353.153 101.192 353.673 101.8 354.329 102.248C354.985 102.68 355.737 102.896 356.585 102.896Z" fill="#373737"/>
<g clip-path="url(#clip0_1553_261)">
<path d="M60.6474 39.4323C59.3875 28.6359 58.0573 17.2366 58.0573 4H69.9427C69.9427 17.0879 68.6189 28.4728 67.3606 39.2813C66.3357 48.0896 65.3552 56.5152 65.1731 65.168C71.1411 58.943 76.3616 52.3424 81.8304 45.4282C88.5731 36.9034 95.6938 27.9022 105.053 18.5428L113.457 26.9473C104.203 36.2019 95.215 43.3155 86.6829 50.0691L86.6749 50.0752C79.7251 55.577 73.0768 60.8397 66.832 66.8269C75.4528 66.6448 83.8115 65.6694 92.567 64.6477C103.364 63.3875 114.764 62.0573 128 62.0573V73.9427C114.913 73.9427 103.528 72.6182 92.7197 71.3606L92.7117 71.36C83.9053 70.3354 75.4822 69.3555 66.832 69.1731C73.0528 75.1366 79.6499 80.3549 86.5597 85.8198L86.5706 85.8291C95.0957 92.5725 104.097 99.6925 113.457 109.053L105.053 117.457C95.7981 108.203 88.6848 99.216 81.9322 90.6845L81.9162 90.6624L81.9027 90.6448C76.408 83.7059 71.1517 77.0682 65.1731 70.832C65.3552 79.4848 66.3357 87.9104 67.3606 96.7187C68.6189 107.527 69.9427 118.912 69.9427 132H58.0573C58.0573 118.764 59.3875 107.364 60.6474 96.5677L60.6499 96.5501C61.6704 87.8006 62.6448 79.447 62.8269 70.832C56.8483 77.0682 51.592 83.7059 46.0973 90.6448L46.0838 90.6624L46.0678 90.6845C39.3152 99.216 32.2019 108.203 22.9473 117.457L14.5428 109.053C23.9027 99.6925 32.9043 92.5725 41.4294 85.8291L41.4403 85.8198C48.3501 80.3549 54.9472 75.1366 61.168 69.1731C52.5152 69.3558 44.0893 70.336 35.2803 71.3606C24.4723 72.6182 13.0875 73.9427 0 73.9427V62.0573C13.2366 62.0573 24.6366 63.3875 35.433 64.6477C44.1885 65.6694 52.5472 66.6448 61.168 66.8269C54.9206 60.8374 48.2698 55.5731 41.3171 50.0691C32.785 43.3155 23.7973 36.2019 14.5428 26.9473L22.9473 18.5428C32.3062 27.9022 39.4269 36.9034 46.1696 45.4282C51.6384 52.3421 56.8589 58.9427 62.8269 65.1674C62.6448 56.5526 61.6704 48.1994 60.6499 39.4499L60.6474 39.4323Z" fill="#FFA589"/>
</g>
<defs>
<clipPath id="clip0_1553_261">
<rect width="128" height="128" fill="white" transform="translate(0 4)"/>
</clipPath>
</defs>
</svg>
