<svg width="100%" height="100%" viewBox="0 0 18 18" fill="none" xmlns="http://www.w3.org/2000/svg">
<path d="M12.4169 9.67949L12.0757 10.0192C12.0757 10.0192 11.2634 10.8262 9.04716 8.62273C6.83091 6.41923 7.64316 5.61223 7.64316 5.61223L7.85766 5.39773C8.38791 4.87123 8.43816 4.02523 7.97541 3.40723L7.03041 2.14498C6.45741 1.37998 5.35116 1.27873 4.69491 1.93123L3.51741 3.10123C3.19266 3.42523 2.97516 3.84373 3.00141 4.30873C3.06891 5.49898 3.60741 8.05874 6.61041 11.0452C9.79566 14.2117 12.7844 14.3377 14.0062 14.2237C14.3932 14.1877 14.7292 13.9912 14.9999 13.7212L16.0649 12.6622C16.7849 11.9475 16.5824 10.7212 15.6614 10.221L14.2289 9.44173C13.6244 9.11323 12.8894 9.20999 12.4169 9.67949Z" fill="currentColor"/>
</svg>
