<svg width="100%" height="100%" viewBox="0 0 50 50" fill="none" xmlns="http://www.w3.org/2000/svg">
<path fill-rule="evenodd" clip-rule="evenodd" d="M24.5417 11.5896C24.749 11.426 33.4167 4.68333 39.1458 11.326C42.2917 14.9719 42.025 18.7562 40.8583 22.4614L36.7521 34.225C35.5511 38.3156 34.6948 39.5792 32.5906 41.3552C31.3427 42.4104 29.9344 40.5885 28.4521 38.6708C27.1677 37.0094 25.8281 35.2771 24.4896 35.2812C23.1281 35.2854 21.7667 37.0208 20.4646 38.6812C18.9636 40.5958 17.5396 42.4114 16.2844 41.3552C13.75 39.2219 12.6386 36.275 11.4761 31.5448C11.2521 30.6344 10.9125 29.5417 10.5365 28.3364C8.96355 23.2854 6.77397 16.2583 9.98439 12.3604C13.95 7.54582 18.875 6.77082 24.4886 11.551L24.5417 11.5896ZM21.7708 12.0833C19.8292 10.75 18.1771 10.325 16.8021 10.4333C15.1136 10.5656 13.3583 11.5406 11.5938 13.6844C10.2646 15.2969 10.1302 18.0198 10.8458 21.5781C11.1865 23.2729 11.6844 24.9885 12.1854 26.6187C12.2927 26.9708 12.4031 27.3229 12.5115 27.6719C12.8917 28.8906 13.2583 30.0687 13.499 31.0469C14.5625 35.3781 15.4886 37.7052 17.1667 39.3448C17.5136 39.0219 17.9511 38.5052 18.5313 37.7708L18.8125 37.4125C19.4063 36.6552 20.1094 35.7562 20.8271 35.0375C21.5896 34.276 22.849 33.2021 24.4833 33.1979C26.125 33.1927 27.3813 34.2833 28.1281 35.0406C28.8354 35.7583 29.5292 36.6562 30.1146 37.4146L30.3927 37.774C30.9604 38.5031 31.3906 39.0198 31.7313 39.3417C32.4052 38.7312 32.8427 38.2219 33.2208 37.5885C33.7104 36.7708 34.1656 35.6375 34.7521 33.6385L34.7844 33.5385L38.8802 21.8062C39.4156 20.0979 39.6875 18.5385 39.5469 17.0729C39.4073 15.6458 38.8667 14.1906 37.5688 12.6864C35.4188 10.1927 32.7771 10.1552 30.2833 10.9271C29.0281 11.3167 27.9021 11.8958 27.0771 12.3917C26.7667 12.5771 26.5063 12.7469 26.3042 12.8854L30.3042 15.8271C30.5268 15.9906 30.6754 16.2359 30.7172 16.509C30.759 16.7821 30.6906 17.0607 30.5271 17.2833C30.3635 17.506 30.1182 17.6546 29.8451 17.6964C29.572 17.7382 29.2935 17.6698 29.0708 17.5062L23.4198 13.35C23.3408 13.2999 23.2653 13.2446 23.1938 13.1844L21.9875 12.2979C21.9051 12.2374 21.8321 12.1651 21.7708 12.0833Z" fill="currentColor"/>
</svg>
